<mxfile host="app.diagrams.net" modified="2024-01-28T13:19:06.942Z" agent="Mozilla/5.0 (Macintosh; Intel Mac OS X 10_15_7) AppleWebKit/537.36 (KHTML, like Gecko) Chrome/121.0.0.0 Safari/537.36" etag="5SW6Pwt1y4-BTWKfhBlT" version="23.0.2" type="device">
  <diagram name="ページ1" id="zvf98qf_SSRaEjZchTyw">
    <mxGraphModel dx="954" dy="640" grid="1" gridSize="10" guides="1" tooltips="1" connect="1" arrows="1" fold="1" page="1" pageScale="1" pageWidth="980" pageHeight="690" math="0" shadow="0">
      <root>
        <mxCell id="0" />
        <mxCell id="1" parent="0" />
        <mxCell id="qzxhxwcTM5FMnMKrt8oi-31" style="edgeStyle=orthogonalEdgeStyle;rounded=0;orthogonalLoop=1;jettySize=auto;html=1;exitX=0.75;exitY=1;exitDx=0;exitDy=0;entryX=0;entryY=0.25;entryDx=0;entryDy=0;" parent="1" source="U-bykkuV9enDH--YNssu-1" target="U-bykkuV9enDH--YNssu-6" edge="1">
          <mxGeometry relative="1" as="geometry" />
        </mxCell>
        <mxCell id="U-bykkuV9enDH--YNssu-1" value="メインメニュー" style="rounded=1;whiteSpace=wrap;html=1;" parent="1" vertex="1">
          <mxGeometry x="50" y="285" width="120" height="60" as="geometry" />
        </mxCell>
        <mxCell id="qzxhxwcTM5FMnMKrt8oi-7" style="edgeStyle=orthogonalEdgeStyle;rounded=0;orthogonalLoop=1;jettySize=auto;html=1;exitX=0.25;exitY=0;exitDx=0;exitDy=0;entryX=0.5;entryY=0;entryDx=0;entryDy=0;jumpStyle=arc;" parent="1" source="U-bykkuV9enDH--YNssu-2" target="U-bykkuV9enDH--YNssu-20" edge="1">
          <mxGeometry relative="1" as="geometry" />
        </mxCell>
        <mxCell id="U-bykkuV9enDH--YNssu-2" value="週間タレント&lt;br&gt;出演検索" style="rounded=1;whiteSpace=wrap;html=1;" parent="1" vertex="1">
          <mxGeometry x="270" y="100" width="120" height="60" as="geometry" />
        </mxCell>
        <mxCell id="U-bykkuV9enDH--YNssu-3" value="番組登録&lt;br&gt;（登録モード）" style="rounded=1;whiteSpace=wrap;html=1;" parent="1" vertex="1">
          <mxGeometry x="270" y="190" width="120" height="60" as="geometry" />
        </mxCell>
        <mxCell id="U-bykkuV9enDH--YNssu-4" value="タレント登録&lt;br&gt;（登録モード）" style="rounded=1;whiteSpace=wrap;html=1;" parent="1" vertex="1">
          <mxGeometry x="270" y="285" width="120" height="60" as="geometry" />
        </mxCell>
        <mxCell id="U-bykkuV9enDH--YNssu-5" value="年月週管理登録&lt;br&gt;（登録モード）" style="rounded=1;whiteSpace=wrap;html=1;" parent="1" vertex="1">
          <mxGeometry x="270" y="380" width="120" height="60" as="geometry" />
        </mxCell>
        <mxCell id="qzxhxwcTM5FMnMKrt8oi-29" style="edgeStyle=orthogonalEdgeStyle;rounded=0;orthogonalLoop=1;jettySize=auto;html=1;exitX=0;exitY=0.75;exitDx=0;exitDy=0;entryX=0.671;entryY=1.024;entryDx=0;entryDy=0;entryPerimeter=0;" parent="1" source="U-bykkuV9enDH--YNssu-6" target="U-bykkuV9enDH--YNssu-1" edge="1">
          <mxGeometry relative="1" as="geometry" />
        </mxCell>
        <mxCell id="qzxhxwcTM5FMnMKrt8oi-30" value="登録後" style="edgeLabel;html=1;align=center;verticalAlign=middle;resizable=0;points=[];" parent="qzxhxwcTM5FMnMKrt8oi-29" vertex="1" connectable="0">
          <mxGeometry x="-0.6192" y="-3" relative="1" as="geometry">
            <mxPoint x="-1" as="offset" />
          </mxGeometry>
        </mxCell>
        <mxCell id="ZybEKpNo64oL5CQTTbQx-10" style="edgeStyle=orthogonalEdgeStyle;rounded=0;orthogonalLoop=1;jettySize=auto;html=1;exitX=0.75;exitY=1;exitDx=0;exitDy=0;entryX=0.25;entryY=0;entryDx=0;entryDy=0;jumpStyle=arc;" edge="1" parent="1" source="U-bykkuV9enDH--YNssu-6" target="U-bykkuV9enDH--YNssu-9">
          <mxGeometry relative="1" as="geometry">
            <Array as="points">
              <mxPoint x="360" y="580" />
              <mxPoint x="510" y="580" />
            </Array>
          </mxGeometry>
        </mxCell>
        <mxCell id="ZybEKpNo64oL5CQTTbQx-11" style="edgeStyle=orthogonalEdgeStyle;rounded=0;orthogonalLoop=1;jettySize=auto;html=1;exitX=0.5;exitY=1;exitDx=0;exitDy=0;entryX=0.25;entryY=0;entryDx=0;entryDy=0;" edge="1" parent="1" source="U-bykkuV9enDH--YNssu-6" target="U-bykkuV9enDH--YNssu-10">
          <mxGeometry relative="1" as="geometry" />
        </mxCell>
        <mxCell id="U-bykkuV9enDH--YNssu-6" value="オンエア管理登録&lt;br&gt;（登録モード）" style="rounded=1;whiteSpace=wrap;html=1;" parent="1" vertex="1">
          <mxGeometry x="270" y="480" width="120" height="60" as="geometry" />
        </mxCell>
        <mxCell id="U-bykkuV9enDH--YNssu-8" value="" style="endArrow=classic;html=1;rounded=0;exitX=1;exitY=0.5;exitDx=0;exitDy=0;entryX=0;entryY=0.5;entryDx=0;entryDy=0;" parent="1" source="U-bykkuV9enDH--YNssu-1" target="U-bykkuV9enDH--YNssu-4" edge="1">
          <mxGeometry width="50" height="50" relative="1" as="geometry">
            <mxPoint x="360" y="310" as="sourcePoint" />
            <mxPoint x="410" y="260" as="targetPoint" />
          </mxGeometry>
        </mxCell>
        <mxCell id="ZybEKpNo64oL5CQTTbQx-8" style="edgeStyle=orthogonalEdgeStyle;rounded=0;orthogonalLoop=1;jettySize=auto;html=1;exitX=1;exitY=0.5;exitDx=0;exitDy=0;entryX=1;entryY=0.5;entryDx=0;entryDy=0;jumpStyle=arc;" edge="1" parent="1" source="U-bykkuV9enDH--YNssu-9" target="qzxhxwcTM5FMnMKrt8oi-2">
          <mxGeometry relative="1" as="geometry" />
        </mxCell>
        <mxCell id="U-bykkuV9enDH--YNssu-9" value="&lt;font style=&quot;font-size: 9px;&quot;&gt;タレント参照ダイアログ&lt;/font&gt;" style="rounded=1;whiteSpace=wrap;html=1;" parent="1" vertex="1">
          <mxGeometry x="480" y="600" width="120" height="60" as="geometry" />
        </mxCell>
        <mxCell id="ZybEKpNo64oL5CQTTbQx-6" style="edgeStyle=orthogonalEdgeStyle;rounded=0;orthogonalLoop=1;jettySize=auto;html=1;" edge="1" parent="1" target="qzxhxwcTM5FMnMKrt8oi-1">
          <mxGeometry relative="1" as="geometry">
            <mxPoint x="781" y="220" as="targetPoint" />
            <mxPoint x="368" y="660" as="sourcePoint" />
            <Array as="points">
              <mxPoint x="368" y="680" />
              <mxPoint x="788" y="680" />
              <mxPoint x="788" y="220" />
            </Array>
          </mxGeometry>
        </mxCell>
        <mxCell id="U-bykkuV9enDH--YNssu-10" value="&lt;font style=&quot;font-size: 10px;&quot;&gt;番組参照ダイアログ&lt;/font&gt;" style="rounded=1;whiteSpace=wrap;html=1;" parent="1" vertex="1">
          <mxGeometry x="300" y="600" width="120" height="60" as="geometry" />
        </mxCell>
        <mxCell id="U-bykkuV9enDH--YNssu-13" value="" style="endArrow=classic;html=1;rounded=0;entryX=0;entryY=0.5;entryDx=0;entryDy=0;" parent="1" source="U-bykkuV9enDH--YNssu-1" target="U-bykkuV9enDH--YNssu-2" edge="1">
          <mxGeometry width="50" height="50" relative="1" as="geometry">
            <mxPoint x="360" y="320" as="sourcePoint" />
            <mxPoint x="410" y="270" as="targetPoint" />
          </mxGeometry>
        </mxCell>
        <mxCell id="U-bykkuV9enDH--YNssu-14" value="" style="endArrow=classic;html=1;rounded=0;entryX=0;entryY=0.5;entryDx=0;entryDy=0;exitX=1;exitY=0.25;exitDx=0;exitDy=0;" parent="1" source="U-bykkuV9enDH--YNssu-1" target="U-bykkuV9enDH--YNssu-3" edge="1">
          <mxGeometry width="50" height="50" relative="1" as="geometry">
            <mxPoint x="146" y="295" as="sourcePoint" />
            <mxPoint x="280" y="140" as="targetPoint" />
          </mxGeometry>
        </mxCell>
        <mxCell id="U-bykkuV9enDH--YNssu-18" value="" style="endArrow=classic;html=1;rounded=0;entryX=0;entryY=0.5;entryDx=0;entryDy=0;exitX=1;exitY=0.75;exitDx=0;exitDy=0;" parent="1" source="U-bykkuV9enDH--YNssu-1" target="U-bykkuV9enDH--YNssu-5" edge="1">
          <mxGeometry width="50" height="50" relative="1" as="geometry">
            <mxPoint x="180" y="310" as="sourcePoint" />
            <mxPoint x="280" y="230" as="targetPoint" />
          </mxGeometry>
        </mxCell>
        <mxCell id="U-bykkuV9enDH--YNssu-20" value="番組詳細" style="rounded=1;whiteSpace=wrap;html=1;" parent="1" vertex="1">
          <mxGeometry x="660" y="100" width="120" height="60" as="geometry" />
        </mxCell>
        <mxCell id="U-bykkuV9enDH--YNssu-29" value="" style="edgeStyle=orthogonalEdgeStyle;rounded=0;orthogonalLoop=1;jettySize=auto;html=1;" parent="1" source="U-bykkuV9enDH--YNssu-21" target="U-bykkuV9enDH--YNssu-2" edge="1">
          <mxGeometry relative="1" as="geometry" />
        </mxCell>
        <mxCell id="U-bykkuV9enDH--YNssu-32" value="" style="edgeStyle=orthogonalEdgeStyle;rounded=0;orthogonalLoop=1;jettySize=auto;html=1;" parent="1" source="U-bykkuV9enDH--YNssu-21" target="U-bykkuV9enDH--YNssu-2" edge="1">
          <mxGeometry relative="1" as="geometry" />
        </mxCell>
        <mxCell id="U-bykkuV9enDH--YNssu-21" value="タレント詳細" style="rounded=1;whiteSpace=wrap;html=1;" parent="1" vertex="1">
          <mxGeometry x="470" y="100" width="120" height="60" as="geometry" />
        </mxCell>
        <mxCell id="U-bykkuV9enDH--YNssu-22" value="" style="endArrow=none;html=1;rounded=0;exitX=1;exitY=0.5;exitDx=0;exitDy=0;endFill=0;" parent="1" source="U-bykkuV9enDH--YNssu-2" edge="1">
          <mxGeometry width="50" height="50" relative="1" as="geometry">
            <mxPoint x="570" y="170" as="sourcePoint" />
            <mxPoint x="470" y="130" as="targetPoint" />
          </mxGeometry>
        </mxCell>
        <mxCell id="U-bykkuV9enDH--YNssu-23" value="" style="endArrow=classic;html=1;rounded=0;exitX=1;exitY=0.5;exitDx=0;exitDy=0;entryX=0;entryY=0.5;entryDx=0;entryDy=0;" parent="1" source="U-bykkuV9enDH--YNssu-21" target="U-bykkuV9enDH--YNssu-20" edge="1">
          <mxGeometry width="50" height="50" relative="1" as="geometry">
            <mxPoint x="400" y="140" as="sourcePoint" />
            <mxPoint x="480" y="140" as="targetPoint" />
          </mxGeometry>
        </mxCell>
        <mxCell id="U-bykkuV9enDH--YNssu-33" value="" style="endArrow=classic;html=1;rounded=0;exitX=1;exitY=0.5;exitDx=0;exitDy=0;" parent="1" edge="1">
          <mxGeometry width="50" height="50" relative="1" as="geometry">
            <mxPoint x="390" y="120" as="sourcePoint" />
            <mxPoint x="470" y="120" as="targetPoint" />
          </mxGeometry>
        </mxCell>
        <mxCell id="qzxhxwcTM5FMnMKrt8oi-1" value="番組登録&lt;br&gt;（更新モード）" style="rounded=1;whiteSpace=wrap;html=1;" parent="1" vertex="1">
          <mxGeometry x="653" y="190" width="120" height="60" as="geometry" />
        </mxCell>
        <mxCell id="qzxhxwcTM5FMnMKrt8oi-2" value="タレント登録&lt;br&gt;（更新モード）" style="rounded=1;whiteSpace=wrap;html=1;" parent="1" vertex="1">
          <mxGeometry x="470" y="285" width="120" height="60" as="geometry" />
        </mxCell>
        <mxCell id="qzxhxwcTM5FMnMKrt8oi-10" value="グリッド内の番組名リンク" style="text;html=1;strokeColor=none;fillColor=none;align=center;verticalAlign=middle;whiteSpace=wrap;rounded=0;" parent="1" vertex="1">
          <mxGeometry x="340" y="56" width="160" height="30" as="geometry" />
        </mxCell>
        <mxCell id="ZybEKpNo64oL5CQTTbQx-25" style="edgeStyle=orthogonalEdgeStyle;rounded=0;orthogonalLoop=1;jettySize=auto;html=1;exitX=0.5;exitY=0;exitDx=0;exitDy=0;entryX=1;entryY=0.5;entryDx=0;entryDy=0;" edge="1" parent="1" source="qzxhxwcTM5FMnMKrt8oi-12" target="qzxhxwcTM5FMnMKrt8oi-14">
          <mxGeometry relative="1" as="geometry" />
        </mxCell>
        <mxCell id="qzxhxwcTM5FMnMKrt8oi-12" value="&lt;font style=&quot;font-size: 10px;&quot;&gt;オンエア管理ダイアログ&lt;/font&gt;" style="rounded=1;whiteSpace=wrap;html=1;" parent="1" vertex="1">
          <mxGeometry x="650" y="600" width="120" height="60" as="geometry" />
        </mxCell>
        <mxCell id="qzxhxwcTM5FMnMKrt8oi-25" style="edgeStyle=orthogonalEdgeStyle;rounded=0;orthogonalLoop=1;jettySize=auto;html=1;exitX=0;exitY=0.75;exitDx=0;exitDy=0;entryX=1;entryY=0.75;entryDx=0;entryDy=0;" parent="1" edge="1">
          <mxGeometry relative="1" as="geometry">
            <mxPoint x="470" y="511" as="sourcePoint" />
            <mxPoint x="390" y="511" as="targetPoint" />
          </mxGeometry>
        </mxCell>
        <mxCell id="qzxhxwcTM5FMnMKrt8oi-26" value="新規登録" style="edgeLabel;html=1;align=center;verticalAlign=middle;resizable=0;points=[];" parent="qzxhxwcTM5FMnMKrt8oi-25" vertex="1" connectable="0">
          <mxGeometry x="0.0694" y="-4" relative="1" as="geometry">
            <mxPoint x="-1" as="offset" />
          </mxGeometry>
        </mxCell>
        <mxCell id="qzxhxwcTM5FMnMKrt8oi-27" style="edgeStyle=orthogonalEdgeStyle;rounded=0;orthogonalLoop=1;jettySize=auto;html=1;exitX=0.5;exitY=1;exitDx=0;exitDy=0;entryX=0.5;entryY=1;entryDx=0;entryDy=0;jumpStyle=arc;" parent="1" source="qzxhxwcTM5FMnMKrt8oi-14" target="U-bykkuV9enDH--YNssu-1" edge="1">
          <mxGeometry relative="1" as="geometry" />
        </mxCell>
        <mxCell id="qzxhxwcTM5FMnMKrt8oi-28" value="更新後" style="edgeLabel;html=1;align=center;verticalAlign=middle;resizable=0;points=[];" parent="qzxhxwcTM5FMnMKrt8oi-27" vertex="1" connectable="0">
          <mxGeometry x="-0.4182" y="-1" relative="1" as="geometry">
            <mxPoint x="-70" as="offset" />
          </mxGeometry>
        </mxCell>
        <mxCell id="ZybEKpNo64oL5CQTTbQx-9" style="edgeStyle=orthogonalEdgeStyle;rounded=0;orthogonalLoop=1;jettySize=auto;html=1;exitX=0.75;exitY=1;exitDx=0;exitDy=0;entryX=0.75;entryY=0;entryDx=0;entryDy=0;" edge="1" parent="1" source="qzxhxwcTM5FMnMKrt8oi-14" target="U-bykkuV9enDH--YNssu-9">
          <mxGeometry relative="1" as="geometry" />
        </mxCell>
        <mxCell id="ZybEKpNo64oL5CQTTbQx-12" style="edgeStyle=orthogonalEdgeStyle;rounded=0;orthogonalLoop=1;jettySize=auto;html=1;exitX=0.25;exitY=1;exitDx=0;exitDy=0;entryX=0.75;entryY=0;entryDx=0;entryDy=0;jumpStyle=arc;" edge="1" parent="1" source="qzxhxwcTM5FMnMKrt8oi-14" target="U-bykkuV9enDH--YNssu-10">
          <mxGeometry relative="1" as="geometry" />
        </mxCell>
        <mxCell id="qzxhxwcTM5FMnMKrt8oi-14" value="オンエア管理登録&lt;br&gt;（更新モード）" style="rounded=1;whiteSpace=wrap;html=1;" parent="1" vertex="1">
          <mxGeometry x="470" y="480" width="120" height="60" as="geometry" />
        </mxCell>
        <mxCell id="ZybEKpNo64oL5CQTTbQx-16" value="" style="edgeStyle=orthogonalEdgeStyle;rounded=0;orthogonalLoop=1;jettySize=auto;html=1;" edge="1" parent="1" source="qzxhxwcTM5FMnMKrt8oi-46" target="qzxhxwcTM5FMnMKrt8oi-2">
          <mxGeometry relative="1" as="geometry" />
        </mxCell>
        <mxCell id="qzxhxwcTM5FMnMKrt8oi-46" value="年月週管理登録&lt;br&gt;（更新モード）" style="rounded=1;whiteSpace=wrap;html=1;" parent="1" vertex="1">
          <mxGeometry x="470" y="380" width="120" height="60" as="geometry" />
        </mxCell>
        <mxCell id="qzxhxwcTM5FMnMKrt8oi-49" style="edgeStyle=orthogonalEdgeStyle;rounded=0;orthogonalLoop=1;jettySize=auto;html=1;exitX=0;exitY=0.75;exitDx=0;exitDy=0;" parent="1" edge="1">
          <mxGeometry relative="1" as="geometry">
            <mxPoint x="470" y="421" as="sourcePoint" />
            <mxPoint x="390" y="421" as="targetPoint" />
          </mxGeometry>
        </mxCell>
        <mxCell id="qzxhxwcTM5FMnMKrt8oi-50" value="新規登録" style="edgeLabel;html=1;align=center;verticalAlign=middle;resizable=0;points=[];" parent="qzxhxwcTM5FMnMKrt8oi-49" vertex="1" connectable="0">
          <mxGeometry x="0.0694" y="-4" relative="1" as="geometry">
            <mxPoint x="-1" y="-3" as="offset" />
          </mxGeometry>
        </mxCell>
        <mxCell id="qzxhxwcTM5FMnMKrt8oi-52" style="edgeStyle=orthogonalEdgeStyle;rounded=0;orthogonalLoop=1;jettySize=auto;html=1;exitX=0.5;exitY=0;exitDx=0;exitDy=0;entryX=1;entryY=0.5;entryDx=0;entryDy=0;strokeColor=default;jumpStyle=arc;targetPerimeterSpacing=0;endArrow=classic;endFill=1;" parent="1" source="qzxhxwcTM5FMnMKrt8oi-51" target="qzxhxwcTM5FMnMKrt8oi-46" edge="1">
          <mxGeometry relative="1" as="geometry" />
        </mxCell>
        <mxCell id="qzxhxwcTM5FMnMKrt8oi-51" value="&lt;font style=&quot;font-size: 10px;&quot;&gt;年月週管理ダイアログ&lt;/font&gt;" style="rounded=1;whiteSpace=wrap;html=1;" parent="1" vertex="1">
          <mxGeometry x="800" y="600" width="120" height="60" as="geometry" />
        </mxCell>
        <mxCell id="D6Cyn6_mF9IFuaK-eNO6-2" style="edgeStyle=orthogonalEdgeStyle;rounded=0;orthogonalLoop=1;jettySize=auto;html=1;entryX=0.5;entryY=0;entryDx=0;entryDy=0;exitX=0.5;exitY=1;exitDx=0;exitDy=0;jumpStyle=arc;" parent="1" source="U-bykkuV9enDH--YNssu-21" target="qzxhxwcTM5FMnMKrt8oi-14" edge="1">
          <mxGeometry relative="1" as="geometry">
            <mxPoint x="510" y="210" as="sourcePoint" />
            <mxPoint x="600" y="420" as="targetPoint" />
            <Array as="points">
              <mxPoint x="530" y="220" />
              <mxPoint x="640" y="220" />
              <mxPoint x="640" y="460" />
              <mxPoint x="530" y="460" />
            </Array>
          </mxGeometry>
        </mxCell>
        <mxCell id="D6Cyn6_mF9IFuaK-eNO6-3" value="グリッド内のIDリンク" style="text;html=1;align=center;verticalAlign=middle;resizable=0;points=[];autosize=1;strokeColor=none;fillColor=none;" parent="1" vertex="1">
          <mxGeometry x="500" y="230" width="140" height="30" as="geometry" />
        </mxCell>
        <mxCell id="D6Cyn6_mF9IFuaK-eNO6-10" value="年月週のリンク" style="text;html=1;strokeColor=none;fillColor=none;align=center;verticalAlign=middle;whiteSpace=wrap;rounded=0;" parent="1" vertex="1">
          <mxGeometry x="300" y="166" width="160" height="30" as="geometry" />
        </mxCell>
        <mxCell id="D6Cyn6_mF9IFuaK-eNO6-11" style="edgeStyle=orthogonalEdgeStyle;rounded=0;orthogonalLoop=1;jettySize=auto;html=1;exitX=0.75;exitY=1;exitDx=0;exitDy=0;entryX=0.75;entryY=0.667;entryDx=0;entryDy=0;entryPerimeter=0;" parent="1" source="D6Cyn6_mF9IFuaK-eNO6-10" target="D6Cyn6_mF9IFuaK-eNO6-10" edge="1">
          <mxGeometry relative="1" as="geometry" />
        </mxCell>
        <mxCell id="ZybEKpNo64oL5CQTTbQx-1" style="edgeStyle=orthogonalEdgeStyle;rounded=0;orthogonalLoop=1;jettySize=auto;html=1;exitX=1;exitY=0.75;exitDx=0;exitDy=0;strokeColor=default;jumpStyle=arc;targetPerimeterSpacing=0;endArrow=classic;endFill=1;entryX=0.417;entryY=0;entryDx=0;entryDy=0;entryPerimeter=0;" edge="1" parent="1" source="qzxhxwcTM5FMnMKrt8oi-46" target="qzxhxwcTM5FMnMKrt8oi-51">
          <mxGeometry relative="1" as="geometry">
            <mxPoint x="910" y="500" as="sourcePoint" />
            <mxPoint x="820" y="540" as="targetPoint" />
            <Array as="points">
              <mxPoint x="590" y="420" />
              <mxPoint x="850" y="420" />
            </Array>
          </mxGeometry>
        </mxCell>
        <mxCell id="ZybEKpNo64oL5CQTTbQx-2" style="edgeStyle=orthogonalEdgeStyle;rounded=0;orthogonalLoop=1;jettySize=auto;html=1;entryX=0.25;entryY=0;entryDx=0;entryDy=0;exitX=1;exitY=0.75;exitDx=0;exitDy=0;jumpStyle=arc;" edge="1" parent="1" source="qzxhxwcTM5FMnMKrt8oi-14" target="qzxhxwcTM5FMnMKrt8oi-12">
          <mxGeometry relative="1" as="geometry">
            <mxPoint x="600" y="530" as="sourcePoint" />
            <mxPoint x="755.96" y="630" as="targetPoint" />
            <Array as="points">
              <mxPoint x="680" y="525" />
            </Array>
          </mxGeometry>
        </mxCell>
        <mxCell id="ZybEKpNo64oL5CQTTbQx-18" style="edgeStyle=orthogonalEdgeStyle;rounded=0;orthogonalLoop=1;jettySize=auto;html=1;exitX=0;exitY=0.75;exitDx=0;exitDy=0;entryX=-0.008;entryY=0.117;entryDx=0;entryDy=0;entryPerimeter=0;" edge="1" parent="1" source="U-bykkuV9enDH--YNssu-21" target="qzxhxwcTM5FMnMKrt8oi-46">
          <mxGeometry relative="1" as="geometry" />
        </mxCell>
        <mxCell id="ZybEKpNo64oL5CQTTbQx-19" style="edgeStyle=orthogonalEdgeStyle;rounded=0;orthogonalLoop=1;jettySize=auto;html=1;exitX=1;exitY=0.75;exitDx=0;exitDy=0;entryX=-0.008;entryY=0.383;entryDx=0;entryDy=0;entryPerimeter=0;" edge="1" parent="1" source="U-bykkuV9enDH--YNssu-2" target="qzxhxwcTM5FMnMKrt8oi-46">
          <mxGeometry relative="1" as="geometry" />
        </mxCell>
        <mxCell id="ZybEKpNo64oL5CQTTbQx-20" value="年月週のリンク" style="text;html=1;strokeColor=none;fillColor=none;align=center;verticalAlign=middle;whiteSpace=wrap;rounded=0;" vertex="1" parent="1">
          <mxGeometry x="420" y="260" width="160" height="30" as="geometry" />
        </mxCell>
        <mxCell id="ZybEKpNo64oL5CQTTbQx-21" value="番組IDのリンク" style="text;html=1;strokeColor=none;fillColor=none;align=center;verticalAlign=middle;whiteSpace=wrap;rounded=0;" vertex="1" parent="1">
          <mxGeometry x="370" y="655" width="160" height="30" as="geometry" />
        </mxCell>
        <mxCell id="ZybEKpNo64oL5CQTTbQx-22" value="タレントIDのリンク" style="text;html=1;strokeColor=none;fillColor=none;align=center;verticalAlign=middle;whiteSpace=wrap;rounded=0;" vertex="1" parent="1">
          <mxGeometry x="600" y="470" width="160" height="30" as="geometry" />
        </mxCell>
        <mxCell id="ZybEKpNo64oL5CQTTbQx-23" value="選択ボタン" style="text;html=1;strokeColor=none;fillColor=none;align=center;verticalAlign=middle;whiteSpace=wrap;rounded=0;" vertex="1" parent="1">
          <mxGeometry x="670" y="520" width="160" height="30" as="geometry" />
        </mxCell>
        <mxCell id="ZybEKpNo64oL5CQTTbQx-24" value="選択ボタン" style="text;html=1;strokeColor=none;fillColor=none;align=center;verticalAlign=middle;whiteSpace=wrap;rounded=0;" vertex="1" parent="1">
          <mxGeometry x="640" y="380" width="160" height="30" as="geometry" />
        </mxCell>
      </root>
    </mxGraphModel>
  </diagram>
</mxfile>
